<mxfile host="app.diagrams.net" modified="2023-06-01T15:49:01.429Z" agent="Mozilla/5.0 (Windows NT 10.0; Win64; x64; rv:109.0) Gecko/20100101 Firefox/113.0" etag="TPGW_6ALOy9u5cIM1brS" version="21.3.6" type="device">
  <diagram name="PÃ¡gina-1" id="RKnRE9NXGAk8tGRJcROv">
    <mxGraphModel dx="1195" dy="628" grid="1" gridSize="10" guides="1" tooltips="1" connect="1" arrows="1" fold="1" page="1" pageScale="1" pageWidth="850" pageHeight="1100" math="0" shadow="0">
      <root>
        <mxCell id="0" />
        <mxCell id="1" parent="0" />
        <mxCell id="j8yZUewrMCpLos5ZFFpr-4" value="" style="edgeStyle=orthogonalEdgeStyle;rounded=0;orthogonalLoop=1;jettySize=auto;html=1;" edge="1" parent="1" source="j8yZUewrMCpLos5ZFFpr-2" target="j8yZUewrMCpLos5ZFFpr-3">
          <mxGeometry relative="1" as="geometry" />
        </mxCell>
        <mxCell id="j8yZUewrMCpLos5ZFFpr-2" value="inicio" style="ellipse;whiteSpace=wrap;html=1;" vertex="1" parent="1">
          <mxGeometry x="390" y="20" width="120" height="80" as="geometry" />
        </mxCell>
        <mxCell id="j8yZUewrMCpLos5ZFFpr-12" value="" style="edgeStyle=orthogonalEdgeStyle;rounded=0;orthogonalLoop=1;jettySize=auto;html=1;" edge="1" parent="1" source="j8yZUewrMCpLos5ZFFpr-3" target="j8yZUewrMCpLos5ZFFpr-5">
          <mxGeometry relative="1" as="geometry" />
        </mxCell>
        <mxCell id="j8yZUewrMCpLos5ZFFpr-3" value="&lt;div&gt;num1 (int)&lt;/div&gt;&lt;div&gt;num2 (int)&lt;/div&gt;&lt;div&gt;resultado (int)&lt;br&gt;&lt;/div&gt;&lt;div&gt;resultado usuario (int)&lt;br&gt;&lt;/div&gt;&lt;div&gt;veces (int)&lt;br&gt;&lt;/div&gt;" style="whiteSpace=wrap;html=1;" vertex="1" parent="1">
          <mxGeometry x="375" y="130" width="150" height="70" as="geometry" />
        </mxCell>
        <mxCell id="j8yZUewrMCpLos5ZFFpr-14" value="" style="edgeStyle=orthogonalEdgeStyle;rounded=0;orthogonalLoop=1;jettySize=auto;html=1;" edge="1" parent="1" source="j8yZUewrMCpLos5ZFFpr-5" target="j8yZUewrMCpLos5ZFFpr-6">
          <mxGeometry relative="1" as="geometry" />
        </mxCell>
        <mxCell id="j8yZUewrMCpLos5ZFFpr-5" value="num1=random (10)" style="shape=parallelogram;perimeter=parallelogramPerimeter;whiteSpace=wrap;html=1;fixedSize=1;" vertex="1" parent="1">
          <mxGeometry x="380" y="230" width="140" height="70" as="geometry" />
        </mxCell>
        <mxCell id="j8yZUewrMCpLos5ZFFpr-15" value="" style="edgeStyle=orthogonalEdgeStyle;rounded=0;orthogonalLoop=1;jettySize=auto;html=1;" edge="1" parent="1" source="j8yZUewrMCpLos5ZFFpr-6" target="j8yZUewrMCpLos5ZFFpr-7">
          <mxGeometry relative="1" as="geometry" />
        </mxCell>
        <mxCell id="j8yZUewrMCpLos5ZFFpr-6" value="&lt;br&gt;num2=random (10)&lt;br&gt;" style="shape=parallelogram;perimeter=parallelogramPerimeter;whiteSpace=wrap;html=1;fixedSize=1;" vertex="1" parent="1">
          <mxGeometry x="397.5" y="340" width="130" height="80" as="geometry" />
        </mxCell>
        <mxCell id="j8yZUewrMCpLos5ZFFpr-16" value="" style="edgeStyle=orthogonalEdgeStyle;rounded=0;orthogonalLoop=1;jettySize=auto;html=1;" edge="1" parent="1" source="j8yZUewrMCpLos5ZFFpr-7" target="j8yZUewrMCpLos5ZFFpr-8">
          <mxGeometry relative="1" as="geometry" />
        </mxCell>
        <mxCell id="j8yZUewrMCpLos5ZFFpr-7" value="resultado= num1*num2" style="rounded=0;whiteSpace=wrap;html=1;" vertex="1" parent="1">
          <mxGeometry x="387.5" y="470" width="145" height="80" as="geometry" />
        </mxCell>
        <mxCell id="j8yZUewrMCpLos5ZFFpr-17" value="" style="edgeStyle=orthogonalEdgeStyle;rounded=0;orthogonalLoop=1;jettySize=auto;html=1;" edge="1" parent="1" source="j8yZUewrMCpLos5ZFFpr-8" target="j8yZUewrMCpLos5ZFFpr-9">
          <mxGeometry relative="1" as="geometry" />
        </mxCell>
        <mxCell id="j8yZUewrMCpLos5ZFFpr-8" value="num1, &quot; &quot;, num2, &quot; &quot;, = &quot; &quot;" style="shape=document;whiteSpace=wrap;html=1;boundedLbl=1;size=0.4444444444444444;" vertex="1" parent="1">
          <mxGeometry x="385" y="590" width="150" height="90" as="geometry" />
        </mxCell>
        <mxCell id="j8yZUewrMCpLos5ZFFpr-25" value="" style="edgeStyle=orthogonalEdgeStyle;rounded=0;orthogonalLoop=1;jettySize=auto;html=1;" edge="1" parent="1" source="j8yZUewrMCpLos5ZFFpr-9" target="j8yZUewrMCpLos5ZFFpr-24">
          <mxGeometry relative="1" as="geometry" />
        </mxCell>
        <mxCell id="j8yZUewrMCpLos5ZFFpr-9" value="resultado_usuario" style="shape=parallelogram;perimeter=parallelogramPerimeter;whiteSpace=wrap;html=1;fixedSize=1;" vertex="1" parent="1">
          <mxGeometry x="400" y="710" width="120" height="60" as="geometry" />
        </mxCell>
        <mxCell id="j8yZUewrMCpLos5ZFFpr-19" value="" style="edgeStyle=orthogonalEdgeStyle;rounded=0;orthogonalLoop=1;jettySize=auto;html=1;entryX=-0.014;entryY=0.588;entryDx=0;entryDy=0;entryPerimeter=0;" edge="1" parent="1" source="j8yZUewrMCpLos5ZFFpr-10" target="j8yZUewrMCpLos5ZFFpr-23">
          <mxGeometry relative="1" as="geometry">
            <mxPoint x="770" y="980" as="targetPoint" />
          </mxGeometry>
        </mxCell>
        <mxCell id="j8yZUewrMCpLos5ZFFpr-21" value="no" style="edgeLabel;html=1;align=center;verticalAlign=middle;resizable=0;points=[];" vertex="1" connectable="0" parent="j8yZUewrMCpLos5ZFFpr-19">
          <mxGeometry x="-0.5018" y="-5" relative="1" as="geometry">
            <mxPoint as="offset" />
          </mxGeometry>
        </mxCell>
        <mxCell id="j8yZUewrMCpLos5ZFFpr-20" style="edgeStyle=orthogonalEdgeStyle;rounded=0;orthogonalLoop=1;jettySize=auto;html=1;" edge="1" parent="1" source="j8yZUewrMCpLos5ZFFpr-10">
          <mxGeometry relative="1" as="geometry">
            <mxPoint x="450" y="210" as="targetPoint" />
            <Array as="points">
              <mxPoint x="210" y="1020" />
              <mxPoint x="210" y="210" />
            </Array>
          </mxGeometry>
        </mxCell>
        <mxCell id="j8yZUewrMCpLos5ZFFpr-22" value="si" style="edgeLabel;html=1;align=center;verticalAlign=middle;resizable=0;points=[];" vertex="1" connectable="0" parent="j8yZUewrMCpLos5ZFFpr-20">
          <mxGeometry x="-0.7953" y="-5" relative="1" as="geometry">
            <mxPoint as="offset" />
          </mxGeometry>
        </mxCell>
        <mxCell id="j8yZUewrMCpLos5ZFFpr-10" value="resultado = = resultado usuario" style="rhombus;whiteSpace=wrap;html=1;" vertex="1" parent="1">
          <mxGeometry x="370" y="945" width="220" height="150" as="geometry" />
        </mxCell>
        <mxCell id="j8yZUewrMCpLos5ZFFpr-30" value="" style="edgeStyle=orthogonalEdgeStyle;rounded=0;orthogonalLoop=1;jettySize=auto;html=1;" edge="1" parent="1" source="j8yZUewrMCpLos5ZFFpr-23" target="j8yZUewrMCpLos5ZFFpr-29">
          <mxGeometry relative="1" as="geometry" />
        </mxCell>
        <mxCell id="j8yZUewrMCpLos5ZFFpr-23" value="&quot;respuesta incorrecta, obtuviste&quot;, veces, &quot; aciertos&quot;" style="shape=document;whiteSpace=wrap;html=1;boundedLbl=1;" vertex="1" parent="1">
          <mxGeometry x="710" y="970" width="120" height="80" as="geometry" />
        </mxCell>
        <mxCell id="j8yZUewrMCpLos5ZFFpr-26" value="" style="edgeStyle=orthogonalEdgeStyle;rounded=0;orthogonalLoop=1;jettySize=auto;html=1;" edge="1" parent="1" source="j8yZUewrMCpLos5ZFFpr-24" target="j8yZUewrMCpLos5ZFFpr-10">
          <mxGeometry relative="1" as="geometry" />
        </mxCell>
        <mxCell id="j8yZUewrMCpLos5ZFFpr-24" value="veces=veces+1" style="rounded=0;whiteSpace=wrap;html=1;" vertex="1" parent="1">
          <mxGeometry x="405" y="820" width="120" height="60" as="geometry" />
        </mxCell>
        <mxCell id="j8yZUewrMCpLos5ZFFpr-29" value="fin" style="ellipse;whiteSpace=wrap;html=1;" vertex="1" parent="1">
          <mxGeometry x="710" y="1150" width="120" height="80" as="geometry" />
        </mxCell>
      </root>
    </mxGraphModel>
  </diagram>
</mxfile>
